<svg width="30" height="25" viewBox="0 0 42 40" fill="none" xmlns="http://www.w3.org/2000/svg">
<path d="M39.8277 17.1439C41.0315 17.1439 42 16.1886 42 15.0013V3.57435C42 2.7084 41.475 1.9228 40.6604 1.59249C39.8458 1.26218 38.9135 1.44073 38.289 2.05671L34.5237 5.77047C26.5948 -1.95165 13.8235 -1.92487 5.93987 5.85974C-1.97996 13.6711 -1.97996 26.3301 5.93987 34.1415C13.8597 41.9528 26.6944 41.9528 34.6142 34.1415C35.7456 33.0255 35.7456 31.2133 34.6142 30.0974C33.4828 28.9815 31.6454 28.9815 30.514 30.0974C24.857 35.677 15.6881 35.677 10.031 30.0974C4.37401 24.5178 4.37401 15.4745 10.031 9.89489C15.6609 4.3421 24.7574 4.31532 30.4235 9.80561L26.7034 13.4837C26.0789 14.0996 25.8978 15.0192 26.2327 15.8226C26.5676 16.6261 27.3642 17.1439 28.2421 17.1439H39.8277Z" fill="white"/>
<path d="M11.1072 25V23.2273L15.2493 19.392C15.6016 19.0511 15.897 18.7443 16.1357 18.4716C16.3781 18.1989 16.5618 17.9318 16.6868 17.6705C16.8118 17.4053 16.8743 17.1193 16.8743 16.8125C16.8743 16.4716 16.7966 16.178 16.6413 15.9318C16.486 15.6818 16.2739 15.4905 16.005 15.358C15.736 15.2216 15.4311 15.1534 15.0902 15.1534C14.7341 15.1534 14.4235 15.2254 14.1584 15.3693C13.8932 15.5133 13.6887 15.7197 13.5447 15.9886C13.4008 16.2576 13.3288 16.5777 13.3288 16.9489H10.9936C10.9936 16.1875 11.166 15.5265 11.5107 14.9659C11.8554 14.4053 12.3383 13.9716 12.9595 13.6648C13.5807 13.358 14.2966 13.2045 15.1072 13.2045C15.9406 13.2045 16.666 13.3523 17.2834 13.6477C17.9046 13.9394 18.3875 14.3447 18.7322 14.8636C19.0769 15.3826 19.2493 15.9773 19.2493 16.6477C19.2493 17.0871 19.1622 17.5208 18.9879 17.9489C18.8175 18.3769 18.5125 18.8523 18.0732 19.375C17.6338 19.8939 17.0144 20.517 16.2152 21.2443L14.5163 22.9091V22.9886H19.4027V25H11.1072Z" fill="white"/>
<path d="M20.7592 22.9545V21.017L25.6172 13.3636H27.2876V16.0455H26.299L23.2365 20.892V20.983H30.1399V22.9545H20.7592ZM26.3445 25V22.3636L26.3899 21.5057V13.3636H28.6967V25H26.3445Z" fill="white"/>
</svg>
