<svg width="20" height="25" viewBox="0 0 20 25" fill="none" xmlns="http://www.w3.org/2000/svg">
<path d="M7.52143 10.2652C6.792 10.2652 6.20269 11.0564 6.20269 12.0359V22.6601C6.20269 23.6395 6.792 24.4308 7.52143 24.4308H12.7964C13.5258 24.4308 14.1151 23.6395 14.1151 22.6601V12.0359C14.1151 11.0564 13.5258 10.2652 12.7964 10.2652H7.52143Z" fill="white"/>
<path d="M0 15.5773C0 14.5978 0.589312 13.8066 1.31874 13.8066H6.5937C7.32313 13.8066 7.91244 14.5978 7.91244 15.5773V22.6601C7.91244 23.6395 7.32313 24.4308 6.5937 24.4308H1.31874C0.589312 24.4308 0 23.6395 0 22.6601V15.5773Z" fill="white"/>
<path d="M12.0876 22.6601V19.1187C12.0876 18.1392 12.6769 17.348 13.4063 17.348H18.6813C19.4107 17.348 20 18.1392 20 19.1187V22.6601C20 23.6395 19.4107 24.4308 18.6813 24.4308H13.4063C12.6769 24.4308 12.0876 23.6395 12.0876 22.6601Z" fill="white"/>
<path d="M10.4819 0.264083L11.4652 2.25575H11.4694L13.6485 2.56825C14.036 2.63075 14.1985 3.10992 13.9152 3.39325L12.3319 4.91825L12.7069 7.08908C12.7694 7.47658 12.3652 7.77658 12.0069 7.59742L10.0652 6.58075L8.11102 7.61408C7.75269 7.79325 7.35269 7.49325 7.41102 7.10575L7.78602 4.93492L6.20269 3.39325C5.91519 3.10575 6.08185 2.62658 6.46935 2.56825L8.64852 2.25575L9.63185 0.264083C9.81102 -0.0942501 10.3194 -0.08175 10.4819 0.264083Z" fill="white"/>
</svg>
