<svg width="10" height="16" viewBox="0 0 10 16" fill="none" xmlns="http://www.w3.org/2000/svg">
<path d="M7.5 6C7.23478 6 6.98043 5.89464 6.79289 5.70711C6.60536 5.51957 6.5 5.26522 6.5 5C6.5 4.73478 6.60536 4.48043 6.79289 4.29289C6.98043 4.10536 7.23478 4 7.5 4C7.76522 4 8.01957 4.10536 8.20711 4.29289C8.39464 4.48043 8.5 4.73478 8.5 5C8.5 5.26522 8.39464 5.51957 8.20711 5.70711C8.01957 5.89464 7.76522 6 7.5 6ZM5 5C5 6.025 5.61563 6.90625 6.5 7.29062L6.5 15C6.5 15.5531 6.94687 16 7.5 16C8.05313 16 8.5 15.5531 8.5 15L8.5 7.29062C9.38437 6.90625 10 6.025 10 5C10 3.975 9.38437 3.09375 8.5 2.70938V1C8.5 0.446875 8.05313 0 7.5 0C6.94687 0 6.5 0.446875 6.5 1L6.5 2.70938C5.61563 3.09375 5 3.975 5 5ZM3.5 10C3.5 10.2652 3.39464 10.5196 3.20711 10.7071C3.01957 10.8946 2.76522 11 2.5 11C2.23478 11 1.98043 10.8946 1.79289 10.7071C1.60536 10.5196 1.5 10.2652 1.5 10C1.5 9.73478 1.60536 9.48043 1.79289 9.29289C1.98043 9.10536 2.23478 9 2.5 9C2.76522 9 3.01957 9.10536 3.20711 9.29289C3.39464 9.48043 3.5 9.73478 3.5 10ZM1.5 7.70938C0.615625 8.09375 0 8.975 0 10C0 11.025 0.615625 11.9063 1.5 12.2906L1.5 15C1.5 15.5531 1.94687 16 2.5 16C3.05313 16 3.5 15.5531 3.5 15L3.5 12.2906C4.38437 11.9063 5 11.025 5 10C5 8.975 4.38437 8.09375 3.5 7.70938L3.5 1C3.5 0.446875 3.05313 0 2.5 0C1.94687 0 1.5 0.446875 1.5 1L1.5 7.70938Z" fill="white"/>
</svg>
