<svg width="3152" height="862" viewBox="0 0 3152 862" fill="none" xmlns="http://www.w3.org/2000/svg">
<path d="M2961.23 608.717C2046.32 -55.5014 1945.83 -5.42163 1438.37 7.00423C930.916 19.4301 300.973 312.003 245.534 370.794C121.476 478.816 1.00044 658.065 1 861H3151C3137.76 778.621 3078.89 694.137 2961.23 608.717Z" fill="#FF6C00"/>
<path d="M224.478 376.768L245.534 370.794M245.534 370.794C300.973 312.003 930.916 19.4301 1438.37 7.00423C1945.83 -5.42163 2046.32 -55.5014 2961.23 608.717C3078.89 694.137 3137.76 778.621 3151 861H1C1.00044 658.065 121.476 478.816 245.534 370.794Z" stroke="black"/>
</svg>
