<svg viewBox="0 0 3152 2758" fill="none" xmlns="http://www.w3.org/2000/svg">
<path d="M2961.31 807.973C2046.31 -74.0269 1945.81 -7.52713 1438.31 8.97287C930.814 25.4729 300.815 413.973 245.371 492.04C121.302 635.481 0.815874 873.5 0.81543 1142.97V2756.97H3151.1V1142.97C3137.85 1033.58 3078.98 921.399 2961.31 807.973Z" fill="#FF6C00"/>
<path d="M224.313 499.973L245.371 492.04M245.371 492.04C300.815 413.973 930.814 25.4729 1438.31 8.97287C1945.81 -7.52713 2046.31 -74.0269 2961.31 807.973C3078.98 921.399 3137.85 1033.58 3151.1 1142.97V2756.97H0.81543V1142.97C0.815874 873.5 121.302 635.481 245.371 492.04Z" stroke="black"/>
</svg>
