<svg width="30" height="25" viewBox="0 0 31 35" fill="none" xmlns="http://www.w3.org/2000/svg">
<path d="M10.8393 2.54688C10.8393 1.68965 10.1467 1 9.28571 1C8.42478 1 7.73214 1.68965 7.73214 2.54688V5.125H5.14286C2.85781 5.125 1 6.9748 1 9.25V29.875C1 32.1502 2.85781 34 5.14286 34H25.8571C28.1422 34 30 32.1502 30 29.875V9.25C30 6.9748 28.1422 5.125 25.8571 5.125H23.2679V2.54688C23.2679 1.68965 22.5752 1 21.7143 1C20.8533 1 20.1607 1.68965 20.1607 2.54688V5.125H10.8393V2.54688ZM4.10714 13.375H26.8929V29.875C26.8929 30.4422 26.4268 30.9062 25.8571 30.9062H5.14286C4.57321 30.9062 4.10714 30.4422 4.10714 29.875V13.375Z" fill="white"/>
<path d="M12.6456 28L17.4695 18.4545V18.375H11.8501V16.3636H20.0149V18.4034L15.1854 28H12.6456Z" fill="white"/>
<path d="M10.8393 2.54688C10.8393 1.68965 10.1467 1 9.28571 1C8.42478 1 7.73214 1.68965 7.73214 2.54688V5.125H5.14286C2.85781 5.125 1 6.9748 1 9.25V29.875C1 32.1502 2.85781 34 5.14286 34H25.8571C28.1422 34 30 32.1502 30 29.875V9.25C30 6.9748 28.1422 5.125 25.8571 5.125H23.2679V2.54688C23.2679 1.68965 22.5752 1 21.7143 1C20.8533 1 20.1607 1.68965 20.1607 2.54688V5.125H10.8393V2.54688ZM4.10714 13.375H26.8929V29.875C26.8929 30.4422 26.4268 30.9062 25.8571 30.9062H5.14286C4.57321 30.9062 4.10714 30.4422 4.10714 29.875V13.375Z" stroke="white"/>
<path d="M12.6456 28L17.4695 18.4545V18.375H11.8501V16.3636H20.0149V18.4034L15.1854 28H12.6456Z" stroke="white"/>
</svg>
